<svg xmlns="http://www.w3.org/2000/svg" viewBox="0 0 1350 196" width="1350" height="196">
<defs>
<marker id="arrow" viewBox="0 0 10 10" refX="9" refY="5" markerWidth="7" markerHeight="7" orient="auto-start-reverse"><path d="M 0 0 L 10 5 L 0 10 z" fill="#10222e"/></marker>
<marker id="arrow-fb" viewBox="0 0 10 10" refX="9" refY="5" markerWidth="7" markerHeight="7" orient="auto-start-reverse"><path d="M 0 0 L 10 5 L 0 10 z" fill="#E45756"/></marker>
</defs>
<rect x="0" y="0" width="1350" height="196" fill="#ffffff"/>
<text x="675.0" y="34" text-anchor="middle" font-family="Arial, Helvetica, sans-serif" font-size="16" font-weight="700" fill="#10222e">MoneyRepair acquisition flow</text>
<line x1="180.0" y1="98.0" x2="220.0" y2="98.0" stroke="#10222e" stroke-width="1.6" marker-end="url(#arrow)"/>
<line x1="370.0" y1="98.0" x2="410.0" y2="98.0" stroke="#10222e" stroke-width="1.6" marker-end="url(#arrow)"/>
<line x1="560.0" y1="98.0" x2="600.0" y2="98.0" stroke="#10222e" stroke-width="1.6" marker-end="url(#arrow)"/>
<line x1="750.0" y1="98.0" x2="790.0" y2="98.0" stroke="#10222e" stroke-width="1.6" marker-end="url(#arrow)"/>
<line x1="940.0" y1="98.0" x2="980.0" y2="98.0" stroke="#10222e" stroke-width="1.6" marker-end="url(#arrow)"/>
<line x1="1130.0" y1="98.0" x2="1170.0" y2="98.0" stroke="#10222e" stroke-width="1.6" marker-end="url(#arrow)"/>
<rect x="30.0" y="70.0" width="150.0" height="56.0" rx="28.0" ry="28.0" fill="#4C78A8" stroke="#10222e" stroke-width="1.4"/><text text-anchor="middle" font-family="Arial, Helvetica, sans-serif" font-size="11" font-weight="600" fill="#10222e"><tspan x="105.0" y="98.0">Start</tspan></text>
<rect x="220.0" y="70.0" width="150.0" height="56.0" rx="8" ry="8" fill="#72B7B2" stroke="#10222e" stroke-width="1.4"/><text text-anchor="middle" font-family="Arial, Helvetica, sans-serif" font-size="11" font-weight="600" fill="#10222e"><tspan x="295.0" y="98.0">Focus QA</tspan></text>
<rect x="410.0" y="70.0" width="150.0" height="56.0" rx="8" ry="8" fill="#72B7B2" stroke="#10222e" stroke-width="1.4"/><text text-anchor="middle" font-family="Arial, Helvetica, sans-serif" font-size="11" font-weight="600" fill="#10222e"><tspan x="485.0" y="98.0">Glare QA</tspan></text>
<rect x="600.0" y="70.0" width="150.0" height="56.0" rx="8" ry="8" fill="#72B7B2" stroke="#10222e" stroke-width="1.4"/><text text-anchor="middle" font-family="Arial, Helvetica, sans-serif" font-size="11" font-weight="600" fill="#10222e"><tspan x="675.0" y="98.0">Color drift QA</tspan></text>
<rect x="790.0" y="70.0" width="150.0" height="56.0" rx="8" ry="8" fill="#72B7B2" stroke="#10222e" stroke-width="1.4"/><text text-anchor="middle" font-family="Arial, Helvetica, sans-serif" font-size="11" font-weight="600" fill="#10222e"><tspan x="865.0" y="98.0">Segmentation QA</tspan></text>
<polygon points="996.0,70.0 1130.0,70.0 1114.0,126.0 980.0,126.0" fill="#F2B441" stroke="#10222e" stroke-width="1.4"/><text text-anchor="middle" font-family="Arial, Helvetica, sans-serif" font-size="11" font-weight="600" fill="#10222e"><tspan x="1055.0" y="98.0">Manifest model</tspan></text>
<rect x="1170.0" y="70.0" width="150.0" height="56.0" rx="28.0" ry="28.0" fill="#4C78A8" stroke="#10222e" stroke-width="1.4"/><text text-anchor="middle" font-family="Arial, Helvetica, sans-serif" font-size="11" font-weight="600" fill="#10222e"><tspan x="1245.0" y="98.0">End</tspan></text>
</svg>