<svg xmlns="http://www.w3.org/2000/svg" viewBox="0 0 1160 302" width="1160" height="302">
<defs>
<marker id="arrow" viewBox="0 0 10 10" refX="9" refY="5" markerWidth="7" markerHeight="7" orient="auto-start-reverse"><path d="M 0 0 L 10 5 L 0 10 z" fill="#10222e"/></marker>
<marker id="arrow-fb" viewBox="0 0 10 10" refX="9" refY="5" markerWidth="7" markerHeight="7" orient="auto-start-reverse"><path d="M 0 0 L 10 5 L 0 10 z" fill="#E45756"/></marker>
</defs>
<rect x="0" y="0" width="1160" height="302" fill="#ffffff"/>
<text x="580.0" y="34" text-anchor="middle" font-family="Arial, Helvetica, sans-serif" font-size="16" font-weight="700" fill="#10222e">MoneyRepair operator loop</text>
<line x1="180.0" y1="98.0" x2="220.0" y2="98.0" stroke="#10222e" stroke-width="1.6" marker-end="url(#arrow)"/>
<line x1="370.0" y1="98.0" x2="410.0" y2="98.0" stroke="#10222e" stroke-width="1.6" marker-end="url(#arrow)"/>
<line x1="560.0" y1="98.0" x2="600.0" y2="98.0" stroke="#10222e" stroke-width="1.6" marker-end="url(#arrow)"/><text x="580.0" y="93.0" text-anchor="middle" font-family="Arial, Helvetica, sans-serif" font-size="9" fill="#41525c">accept</text>
<line x1="485.0" y1="126.0" x2="485.0" y2="176.0" stroke="#10222e" stroke-width="1.6" marker-end="url(#arrow)"/><text x="493.0" y="151.0" text-anchor="start" font-family="Arial, Helvetica, sans-serif" font-size="9" fill="#41525c">reject</text>
<line x1="750.0" y1="98.0" x2="790.0" y2="98.0" stroke="#10222e" stroke-width="1.6" marker-end="url(#arrow)"/>
<line x1="940.0" y1="98.0" x2="980.0" y2="98.0" stroke="#10222e" stroke-width="1.6" marker-end="url(#arrow)"/>
<path d="M 485.0 232.0 C 485.0 272.0, 295.0 272.0, 295.0 126.0" fill="none" stroke="#E45756" stroke-width="1.6" stroke-dasharray="6 4" marker-end="url(#arrow-fb)"/><text x="390.0" y="284.0" text-anchor="middle" font-family="Arial, Helvetica, sans-serif" font-size="9" fill="#E45756">retry</text>
<rect x="30.0" y="70.0" width="150.0" height="56.0" rx="28.0" ry="28.0" fill="#4C78A8" stroke="#10222e" stroke-width="1.4"/><text text-anchor="middle" font-family="Arial, Helvetica, sans-serif" font-size="11" font-weight="600" fill="#10222e"><tspan x="105.0" y="98.0">Start</tspan></text>
<polygon points="236.0,70.0 370.0,70.0 354.0,126.0 220.0,126.0" fill="#F2B441" stroke="#10222e" stroke-width="1.4"/><text text-anchor="middle" font-family="Arial, Helvetica, sans-serif" font-size="11" font-weight="600" fill="#10222e"><tspan x="295.0" y="98.0">Render gallery</tspan></text>
<polygon points="485.0,70.0 560.0,98.0 485.0,126.0 410.0,98.0" fill="#B279A2" stroke="#10222e" stroke-width="1.4"/><text text-anchor="middle" font-family="Arial, Helvetica, sans-serif" font-size="11" font-weight="600" fill="#10222e"><tspan x="485.0" y="98.0">Operator review</tspan></text>
<rect x="600.0" y="70.0" width="150.0" height="56.0" rx="8" ry="8" fill="#72B7B2" stroke="#10222e" stroke-width="1.4"/><text text-anchor="middle" font-family="Arial, Helvetica, sans-serif" font-size="11" font-weight="600" fill="#10222e"><tspan x="675.0" y="91.5">Confirm</tspan><tspan x="675.0" y="104.5">reconstruction</tspan></text>
<rect x="790.0" y="70.0" width="150.0" height="56.0" rx="8" ry="8" fill="#72B7B2" stroke="#10222e" stroke-width="1.4"/><text text-anchor="middle" font-family="Arial, Helvetica, sans-serif" font-size="11" font-weight="600" fill="#10222e"><tspan x="865.0" y="91.5">Remove from</tspan><tspan x="865.0" y="104.5">pool</tspan></text>
<rect x="980.0" y="70.0" width="150.0" height="56.0" rx="28.0" ry="28.0" fill="#4C78A8" stroke="#10222e" stroke-width="1.4"/><text text-anchor="middle" font-family="Arial, Helvetica, sans-serif" font-size="11" font-weight="600" fill="#10222e"><tspan x="1055.0" y="98.0">Next batch</tspan></text>
<rect x="410.0" y="176.0" width="150.0" height="56.0" rx="8" ry="8" fill="#72B7B2" stroke="#10222e" stroke-width="1.4"/><text text-anchor="middle" font-family="Arial, Helvetica, sans-serif" font-size="11" font-weight="600" fill="#10222e"><tspan x="485.0" y="197.5">Reject</tspan><tspan x="485.0" y="210.5">candidate</tspan></text>
</svg>