<svg xmlns="http://www.w3.org/2000/svg" viewBox="0 0 1350 196" width="1350" height="196">
<defs>
<marker id="arrow" viewBox="0 0 10 10" refX="9" refY="5" markerWidth="7" markerHeight="7" orient="auto-start-reverse"><path d="M 0 0 L 10 5 L 0 10 z" fill="#10222e"/></marker>
<marker id="arrow-fb" viewBox="0 0 10 10" refX="9" refY="5" markerWidth="7" markerHeight="7" orient="auto-start-reverse"><path d="M 0 0 L 10 5 L 0 10 z" fill="#E45756"/></marker>
</defs>
<rect x="0" y="0" width="1350" height="196" fill="#ffffff"/>
<text x="675.0" y="34" text-anchor="middle" font-family="Arial, Helvetica, sans-serif" font-size="16" font-weight="700" fill="#10222e">MoneyRepair production pipeline</text>
<line x1="180.0" y1="98.0" x2="220.0" y2="98.0" stroke="#10222e" stroke-width="1.6" marker-end="url(#arrow)"/><text x="200.0" y="93.0" text-anchor="middle" font-family="Arial, Helvetica, sans-serif" font-size="9" fill="#41525c">accepted frames</text>
<line x1="370.0" y1="98.0" x2="410.0" y2="98.0" stroke="#10222e" stroke-width="1.6" marker-end="url(#arrow)"/>
<line x1="560.0" y1="98.0" x2="600.0" y2="98.0" stroke="#10222e" stroke-width="1.6" marker-end="url(#arrow)"/><text x="580.0" y="93.0" text-anchor="middle" font-family="Arial, Helvetica, sans-serif" font-size="9" fill="#41525c">compatible pairs</text>
<line x1="750.0" y1="98.0" x2="790.0" y2="98.0" stroke="#10222e" stroke-width="1.6" marker-end="url(#arrow)"/><text x="770.0" y="93.0" text-anchor="middle" font-family="Arial, Helvetica, sans-serif" font-size="9" fill="#41525c">candidates</text>
<line x1="940.0" y1="98.0" x2="980.0" y2="98.0" stroke="#10222e" stroke-width="1.6" marker-end="url(#arrow)"/>
<line x1="1130.0" y1="98.0" x2="1170.0" y2="98.0" stroke="#10222e" stroke-width="1.6" marker-end="url(#arrow)"/><text x="1150.0" y="93.0" text-anchor="middle" font-family="Arial, Helvetica, sans-serif" font-size="9" fill="#41525c">accept</text>
<path d="M 1055.0 70.0 C 1055.0 26.0, 675.0 26.0, 675.0 70.0" fill="none" stroke="#E45756" stroke-width="1.6" stroke-dasharray="6 4" marker-end="url(#arrow-fb)"/><text x="865.0" y="22.0" text-anchor="middle" font-family="Arial, Helvetica, sans-serif" font-size="9" fill="#E45756">reject / retry</text>
<rect x="30.0" y="70.0" width="150.0" height="56.0" rx="28.0" ry="28.0" fill="#4C78A8" stroke="#10222e" stroke-width="1.4"/><text text-anchor="middle" font-family="Arial, Helvetica, sans-serif" font-size="11" font-weight="600" fill="#10222e"><tspan x="105.0" y="98.0">Acquisition QA</tspan></text>
<polygon points="236.0,70.0 370.0,70.0 354.0,126.0 220.0,126.0" fill="#F2B441" stroke="#10222e" stroke-width="1.4"/><text text-anchor="middle" font-family="Arial, Helvetica, sans-serif" font-size="11" font-weight="600" fill="#10222e"><tspan x="295.0" y="98.0">Manifest model</tspan></text>
<rect x="410.0" y="70.0" width="150.0" height="56.0" rx="8" ry="8" fill="#72B7B2" stroke="#10222e" stroke-width="1.4"/><text text-anchor="middle" font-family="Arial, Helvetica, sans-serif" font-size="11" font-weight="600" fill="#10222e"><tspan x="485.0" y="91.5">Compatibility</tspan><tspan x="485.0" y="104.5">pruning</tspan></text>
<rect x="600.0" y="70.0" width="150.0" height="56.0" rx="8" ry="8" fill="#72B7B2" stroke="#10222e" stroke-width="1.4"/><text text-anchor="middle" font-family="Arial, Helvetica, sans-serif" font-size="11" font-weight="600" fill="#10222e"><tspan x="675.0" y="98.0">DFS search</tspan></text>
<polygon points="806.0,70.0 940.0,70.0 924.0,126.0 790.0,126.0" fill="#F2B441" stroke="#10222e" stroke-width="1.4"/><text text-anchor="middle" font-family="Arial, Helvetica, sans-serif" font-size="11" font-weight="600" fill="#10222e"><tspan x="865.0" y="91.5">Candidate</tspan><tspan x="865.0" y="104.5">report</tspan></text>
<polygon points="1055.0,70.0 1130.0,98.0 1055.0,126.0 980.0,98.0" fill="#B279A2" stroke="#10222e" stroke-width="1.4"/><text text-anchor="middle" font-family="Arial, Helvetica, sans-serif" font-size="11" font-weight="600" fill="#10222e"><tspan x="1055.0" y="98.0">Operator review</tspan></text>
<rect x="1170.0" y="70.0" width="150.0" height="56.0" rx="28.0" ry="28.0" fill="#4C78A8" stroke="#10222e" stroke-width="1.4"/><text text-anchor="middle" font-family="Arial, Helvetica, sans-serif" font-size="11" font-weight="600" fill="#10222e"><tspan x="1245.0" y="98.0">Confirmed note</tspan></text>
</svg>